<svg xmlns="http://www.w3.org/2000/svg" width="32.13" height="32.052"><path d="M12.833 28.78v3.254l-.787-.636A52.753 52.753 0 016.1 25.583C2.052 20.937 0 16.767 0 13.188v-.355a12.833 12.833 0 0125.667 0v.355c0 .3-.016.606-.045.915l-2.51-2.29A10.329 10.329 0 002.5 12.833v.355c0 6.048 7.8 13.369 10.333 15.592zm7.7-1.8h3.756v-3.755h-3.756zm-7.7-19.469a5.321 5.321 0 11-5.321 5.321 5.327 5.327 0 015.321-5.32zm0 2.5a2.817 2.817 0 102.817 2.817 2.82 2.82 0 00-2.817-2.812zm17.61 15.269l-.7-.642v4.02a3.4 3.4 0 01-3.395 3.395h-7.932a3.4 3.4 0 01-3.395-3.395v-4.02l-.7.642-1.691-1.85 9.75-8.9 9.751 8.9zm-3.208-2.927l-4.855-4.429-4.855 4.429v6.3a.892.892 0 00.891.891h7.928a.892.892 0 00.891-.891zm0 0" fill="#fff"/></svg>