<svg data-name="Group 21" xmlns="http://www.w3.org/2000/svg" width="32.052" height="32.052"><g data-name="Group 20" fill="#fff"><path data-name="Path 354" d="M7.512 12.708H5.038A11.02 11.02 0 0126.363 9.7a1.252 1.252 0 002.349-.869 13.523 13.523 0 00-26.206 4.55A5.01 5.01 0 000 17.716v4.257a5.014 5.014 0 005.008 5.008h2.5a1.252 1.252 0 001.252-1.252V13.96a1.252 1.252 0 00-1.248-1.252zM6.26 24.477H5.008a2.507 2.507 0 01-2.5-2.5v-4.261a2.507 2.507 0 012.5-2.5H6.26z"/><path data-name="Path 355" d="M27.044 12.708h-2.5a1.252 1.252 0 00-1.252 1.252v13.084a1.253 1.253 0 01-1.252 1.252h-3.818v.04a2.5 2.5 0 100 2.425v.04h3.819a3.76 3.76 0 003.756-3.756v-.063h1.252a5.014 5.014 0 005.008-5.008v-4.257a5.014 5.014 0 00-5.013-5.009zm2.5 9.265a2.507 2.507 0 01-2.5 2.5h-1.252v-9.265h1.252a2.507 2.507 0 012.5 2.5z"/></g></svg>