<svg xmlns="http://www.w3.org/2000/svg" width="46.248" height="46.251"><g data-name="Group 2"><g data-name="Group 1"><path data-name="Path 50" d="M45.477 29.294H.771a.771.771 0 00-.771.771 16.2 16.2 0 0016.183 16.187h13.878a16.206 16.206 0 0016.187-16.187.77.77 0 00-.771-.771zm-15.416 15.42H16.183A14.664 14.664 0 011.562 30.836h43.121a14.664 14.664 0 01-14.622 13.878z" fill="#db9a64"/></g></g><g data-name="Group 4"><g data-name="Group 3"><path data-name="Path 51" d="M39.315 10.799c0-.056 0-.113-.006-.2a3.2 3.2 0 00-2.157-2.722l.873-.873a4.128 4.128 0 00.341-5.527 4.052 4.052 0 00-5.7-.551 3.67 3.67 0 00-.288.261l-.948.962A3.217 3.217 0 0028.685.005a3.081 3.081 0 00-3.244 2.914v1.35a3.065 3.065 0 00-1.538-.415c-.055 0-.113 0-.2.006a3.194 3.194 0 00-2.888 3.211V8.12a3.073 3.073 0 00-1.538-.412c-.055 0-.112 0-.2.006a3.2 3.2 0 00-2.889 3.211v11.431a.771.771 0 00.771.771h13.1a3.081 3.081 0 002.668-4.623h1.041a3.19 3.19 0 003.227-2.919 3.064 3.064 0 00-.422-1.725 3.083 3.083 0 002.742-3.061zm-1.994 1.088a1.534 1.534 0 01-1.09.449h-2.315a.771.771 0 000 1.542h.085a1.538 1.538 0 011.46 1.592 1.643 1.643 0 01-1.676 1.489h-3.723a.771.771 0 100 1.542 1.542 1.542 0 110 3.083H17.729V10.912a1.644 1.644 0 011.46-1.66h.084a1.543 1.543 0 011.539 1.539v.008a.77.77 0 00.77.771.771.771 0 00.771-.77V7.058a1.644 1.644 0 011.46-1.66h.083a1.544 1.544 0 011.54 1.541.77.77 0 00.77.771.771.771 0 00.771-.77V3.087l.008-.088a1.528 1.528 0 011.591-1.46 1.651 1.651 0 011.489 1.677v.64a.77.77 0 001.32.54l2.091-2.122a3.3 3.3 0 01.176-.16 2.506 2.506 0 013.517.33 2.589 2.589 0 01-.226 3.463l-2.027 2.027a.771.771 0 00.545 1.316h.681a1.643 1.643 0 011.633 1.46v.085a1.532 1.532 0 01-.455 1.092z" fill="#db9a64"/></g></g><g data-name="Group 6"><g data-name="Group 5"><path data-name="Rectangle 18" fill="#db9a64" d="M11.789 26.434L33.371 4.852l1.09 1.09L12.88 27.524z"/></g></g><g data-name="Group 8"><g data-name="Group 7"><path data-name="Rectangle 19" fill="#db9a64" d="M28.518 6.174h1.542v3.854h-1.542z"/></g></g><g data-name="Group 10"><g data-name="Group 9"><path data-name="Rectangle 20" fill="#db9a64" d="M23.893 10.028h1.542v4.625h-1.542z"/></g></g><g data-name="Group 12"><g data-name="Group 11"><path data-name="Rectangle 21" fill="#db9a64" d="M19.269 13.874h1.542v5.396h-1.542z"/></g></g><g data-name="Group 14"><g data-name="Group 13"><path data-name="Rectangle 22" fill="#db9a64" d="M29.289 9.257h3.854v1.542h-3.854z"/></g></g><g data-name="Group 16"><g data-name="Group 15"><path data-name="Rectangle 23" fill="#db9a64" d="M24.664 13.874h4.625v1.542h-4.625z"/></g></g><g data-name="Group 18"><g data-name="Group 17"><path data-name="Rectangle 24" fill="#db9a64" d="M20.039 18.499h5.396v1.542h-5.396z"/></g></g><g data-name="Group 20"><g data-name="Group 19"><path data-name="Path 52" d="M14.387 3.566a3.556 3.556 0 00-4.926-.984c-.051.033-.1.069-.158.111l-.278.211-.267-.192a3.546 3.546 0 10-4.225 5.644l.649.507v.395a3.854 3.854 0 107.707 0v-.395l.682-.533a3.548 3.548 0 00.816-4.764zm-1.758 3.539l-.987.771a.771.771 0 00-.3.607v.771a2.313 2.313 0 11-4.625 0v-.771a.769.769 0 00-.3-.607l-.987-.771a.759.759 0 00-.093-.062A2 2 0 117.72 3.86a.812.812 0 00.084.07l.771.555a.77.77 0 00.917-.012l.812-.611a1.993 1.993 0 012.316 3.244z" fill="#db9a64"/></g></g><g data-name="Group 22"><g data-name="Group 21"><path data-name="Rectangle 25" fill="#db9a64" d="M16.956.771h1.542v1.542h-1.542z"/></g></g><g data-name="Group 24"><g data-name="Group 23"><path data-name="Rectangle 26" fill="#db9a64" d="M21.581 25.436h1.542v1.542h-1.542z"/></g></g><g data-name="Group 26"><g data-name="Group 25"><path data-name="Path 53" d="M41.623 4.629v1.542a1.542 1.542 0 110 3.083v1.542a3.083 3.083 0 000-6.166z" fill="#db9a64"/></g></g><g data-name="Group 28"><g data-name="Group 27"><path data-name="Rectangle 27" fill="#db9a64" d="M1.54 11.57h1.542v1.542H1.54z"/></g></g><g data-name="Group 30"><g data-name="Group 29"><path data-name="Rectangle 28" fill="#db9a64" d="M0 8.486h1.542v1.542H0z"/></g></g><g data-name="Group 32"><g data-name="Group 31"><path data-name="Path 54" d="M30.061 24.669a3.086 3.086 0 00-3.083 3.083h1.542a1.542 1.542 0 113.083 0h1.542a3.086 3.086 0 00-3.084-3.083z" fill="#db9a64"/></g></g><g data-name="Group 34"><g data-name="Group 33"><path data-name="Path 55" d="M9.25 17.729h-.1a3.084 3.084 0 00-5.968 0h-.1a3.083 3.083 0 100 6.166H9.25a3.083 3.083 0 100-6.166zm0 4.626H3.082a1.542 1.542 0 110-3.083h.771a.771.771 0 00.771-.771 1.542 1.542 0 013.083 0 .771.771 0 00.771.771h.771a1.542 1.542 0 110 3.083z" fill="#db9a64"/></g></g><g data-name="Group 36"><g data-name="Group 35"><path data-name="Path 56" d="M7.708 22.356H4.625a.771.771 0 00-.771.771v3.083a.771.771 0 00.771.771h3.083a.771.771 0 00.771-.771v-3.083a.771.771 0 00-.771-.771zm-.771 3.083H5.396v-1.542h1.542v1.542z" fill="#db9a64"/></g></g><g data-name="Group 38"><g data-name="Group 37"><path data-name="Path 57" d="M40.852 20.044a2.312 2.312 0 102.312 2.312 2.315 2.315 0 00-2.312-2.312zm0 3.084a.771.771 0 11.771-.771.772.772 0 01-.771.771z" fill="#db9a64"/></g></g><g data-name="Group 40"><g data-name="Group 39"><path data-name="Path 58" d="M40.853 16.961a5.4 5.4 0 105.4 5.4 5.4 5.4 0 00-5.4-5.4zm0 9.25a3.854 3.854 0 113.854-3.854 3.859 3.859 0 01-3.854 3.854z" fill="#db9a64"/></g></g></svg>