<svg xmlns="http://www.w3.org/2000/svg" width="46.251" height="46.251"><g data-name="Group 42"><g data-name="Group 41"><path data-name="Path 59" d="M41.225 30.208a2.731 2.731 0 00-.139-.21 3 3 0 00-4.193-.692l-8.618 6.154h-9a.771.771 0 110-1.542h5.011a2.7 2.7 0 002.7-2.7v-.087a2.707 2.707 0 00-2.758-2.611H14.193a3.868 3.868 0 00-2.437.895l-3.769 3.137a.773.773 0 00-.278.593v9.25a.771.771 0 00.771.771h19.125a5.408 5.408 0 003.435-1.24l9.345-7.722a3.029 3.029 0 00.84-3.996zm-1.777 2.777l-9.39 7.756a3.868 3.868 0 01-2.454.886H9.251v-8.118l3.493-2.908a2.319 2.319 0 011.456-.537h10.045a1.178 1.178 0 011.193 1.157 1.158 1.158 0 01-1.156 1.156h-5.007a2.313 2.313 0 100 4.625h9.25a.781.781 0 00.449-.143l8.82-6.3a1.463 1.463 0 012.047.342c.023.032.044.064.064.1a1.5 1.5 0 01-.457 1.983z" fill="#db9a64"/></g></g><g data-name="Group 44"><g data-name="Group 43"><path data-name="Path 60" d="M8.456 31.605H0v1.542h7.685V44.71H0v1.542h8.456a.771.771 0 00.771-.771v-13.1a.771.771 0 00-.771-.776z" fill="#db9a64"/></g></g><g data-name="Group 46"><g data-name="Group 45"><path data-name="Path 61" d="M3.855 38.543a2.313 2.313 0 102.313 2.313 2.315 2.315 0 00-2.313-2.313zm0 3.083a.771.771 0 11.771-.771.772.772 0 01-.771.771z" fill="#db9a64"/></g></g><g data-name="Group 48"><g data-name="Group 47"><path data-name="Path 62" d="M45.48 23.896H.771a.771.771 0 00-.771.767 5.4 5.4 0 005.4 5.4h35.455a5.4 5.4 0 005.4-5.4.77.77 0 00-.775-.767zm-4.625 4.625H5.4a3.86 3.86 0 01-3.776-3.083h43.008a3.86 3.86 0 01-3.777 3.083z" fill="#db9a64"/></g></g><g data-name="Group 50"><g data-name="Group 49"><path data-name="Path 63" d="M23.125 3.854A20.065 20.065 0 003.083 23.896v.771a.771.771 0 00.771.771h38.543a.77.77 0 00.771-.771v-.771A20.065 20.065 0 0023.125 3.854zm-18.5 20.042a18.5 18.5 0 1137 0z" fill="#db9a64"/></g></g><g data-name="Group 52"><g data-name="Group 51"><path data-name="Path 64" d="M10.447 12.647a17.229 17.229 0 00-1.485 1.928l1.285.852a15.754 15.754 0 011.352-1.756z" fill="#db9a64"/></g></g><g data-name="Group 54"><g data-name="Group 53"><path data-name="Path 65" d="M23.125 6.938a16.9 16.9 0 00-11.605 4.6l1.056 1.123a15.359 15.359 0 0110.55-4.185z" fill="#db9a64"/></g></g><g data-name="Group 56"><g data-name="Group 55"><path data-name="Rectangle 29" fill="#db9a64" d="M20.813 0h4.625v1.542h-4.625z"/></g></g><g data-name="Group 58"><g data-name="Group 57"><path data-name="Rectangle 30" fill="#db9a64" d="M22.355.771h1.542v3.854h-1.542z"/></g></g></svg>